<svg version="1.1" xmlns="http://www.w3.org/2000/svg" xmlns:xlink="http://www.w3.org/1999/xlink" width="520" height="560"><defs/><g><g/><g/><g/><g/><g/><g/><g/><g/><g/><g/><g/><g/><g/><g><rect fill="white" stroke="none" x="0" y="0" width="520" height="560"/></g><g><text fill="black" stroke="none" font-family="sans-serif" font-size="16.5pt" font-style="normal" font-weight="normal" text-decoration="normal" x="112.40511903357748" y="24.50280495" text-anchor="start" dominant-baseline="alphabetic" xml:space="preserve">P2P Communication Structure</text></g><g/><g><path fill="none" stroke="black" paint-order="fill stroke markers" d=" M 46.04517275595703 128.80307802049998 L 46.04517275595703 560.0524451405" stroke-miterlimit="10" stroke-width="1.3612669416666667" stroke-dasharray="12.565541,5.445067766666667"/><path fill="none" stroke="black" paint-order="fill stroke markers" d=" M 261.5741597135091 128.80307802049998 L 261.5741597135091 560.0524451405" stroke-miterlimit="10" stroke-width="1.3612669416666667" stroke-dasharray="12.565541,5.445067766666667"/><path fill="none" stroke="black" paint-order="fill stroke markers" d=" M 477.10314667106115 128.80307802049998 L 477.10314667106115 560.0524451405" stroke-miterlimit="10" stroke-width="1.3612669416666667" stroke-dasharray="12.565541,5.445067766666667"/></g><g><g><path fill="white" stroke="black" paint-order="fill stroke markers" d=" M 55.35623863695703 59.70516806150002 A 9.311065881 9.311065881 0 1 1 55.35623398142448 59.69585699717086 M 46.04517275595703 69.01623394250002 L 46.04517275595703 88.94518196850002 M 34.283826379957034 76.20372339450002 L 57.80651913195703 76.20372339450002 M 46.04517275595703 88.94518196850002 L 34.283826379957034 107.56731373050002 M 46.04517275595703 88.94518196850002 L 57.80651913195703 107.56731373050002" stroke-miterlimit="10" stroke-width="2.7769845610000004" stroke-dasharray=""/></g><g><text fill="black" stroke="none" font-family="sans-serif" font-size="11pt" font-style="normal" font-weight="normal" text-decoration="normal" x="8.167601650000002" y="123.90251703050002" text-anchor="start" dominant-baseline="alphabetic" xml:space="preserve">Alice (Host)</text></g><path fill="none" stroke="none"/><g><path fill="white" stroke="black" paint-order="fill stroke markers" d=" M 222.26136043427863 84.69802911050002 L 300.88695899273955 84.69802911050002 L 300.88695899273955 128.8030780205 L 222.26136043427863 128.8030780205 L 222.26136043427863 84.69802911050002 Z" stroke-miterlimit="10" stroke-width="2.613632528" stroke-dasharray=""/></g><g><g/><text fill="black" stroke="none" font-family="sans-serif" font-size="11pt" font-style="normal" font-weight="normal" text-decoration="normal" x="239.98505601477865" y="112.46787472049999" text-anchor="start" dominant-baseline="alphabetic" xml:space="preserve">Server</text></g><g><path fill="white" stroke="black" paint-order="fill stroke markers" d=" M 486.41421255206114 59.70516806150002 A 9.311065881 9.311065881 0 1 1 486.4142078965286 59.69585699717086 M 477.10314667106115 69.01623394250002 L 477.10314667106115 88.94518196850002 M 465.34180029506115 76.20372339450002 L 488.86449304706116 76.20372339450002 M 477.10314667106115 88.94518196850002 L 465.34180029506115 107.56731373050002 M 477.10314667106115 88.94518196850002 L 488.86449304706116 107.56731373050002" stroke-miterlimit="10" stroke-width="2.7769845610000004" stroke-dasharray=""/></g><g><text fill="black" stroke="none" font-family="sans-serif" font-size="11pt" font-style="normal" font-weight="normal" text-decoration="normal" x="441.6593600499674" y="123.90251703050002" text-anchor="start" dominant-baseline="alphabetic" xml:space="preserve">Bob (Peer)</text></g></g><g><g><g><rect fill="white" stroke="none" x="88.21337438719401" y="161.4734846205" width="131.19258369507813" height="21.23576429"/></g><text fill="black" stroke="none" font-family="sans-serif" font-size="11pt" font-style="normal" font-weight="normal" text-decoration="normal" x="90.66365488219401" y="176.17516759049997" text-anchor="start" dominant-baseline="alphabetic" xml:space="preserve">Request New Party</text></g><g><path fill="none" stroke="black" paint-order="fill stroke markers" d=" M 46.04517275595703 182.70924891049998 L 258.8516258301758 182.70924891049998" stroke-miterlimit="10" stroke-width="1.3612669416666667" stroke-dasharray=""/><g transform="translate(261.5741597135091,182.70924891049998) translate(-261.5741597135091,-182.70924891049998)"><path fill="black" stroke="none" paint-order="stroke fill markers" d=" M 247.96149029684244 175.90291420216664 L 261.5741597135091 182.70924891049998 L 247.96149029684244 189.51558361883332 Z"/></g></g><g><g><rect fill="white" stroke="none" x="114.69153906004557" y="207.2120538605" width="78.236254349375" height="21.23576429"/></g><text fill="black" stroke="none" font-family="sans-serif" font-size="11pt" font-style="normal" font-weight="normal" text-decoration="normal" x="117.14181955504557" y="221.91373683049997" text-anchor="start" dominant-baseline="alphabetic" xml:space="preserve">Party Code</text></g><g><path fill="none" stroke="black" paint-order="fill stroke markers" d=" M 261.5741597135091 228.44781815049998 L 48.76770663929037 228.44781815049998" stroke-miterlimit="10" stroke-width="1.3612669416666667" stroke-dasharray=""/><g transform="translate(46.04517275595703,228.44781815049998) translate(-46.04517275595703,-228.44781815049998)"><path fill="black" stroke="none" paint-order="stroke fill markers" d=" M 59.6578421726237 221.64148344216665 L 46.04517275595703 228.44781815049998 L 59.6578421726237 235.25415285883332 Z"/></g></g><g><g><rect fill="white" stroke="none" x="220.00434949438804" y="252.9506231005" width="83.13962043824219" height="21.23576429"/></g><text fill="black" stroke="none" font-family="sans-serif" font-size="11pt" font-style="normal" font-weight="normal" text-decoration="normal" x="222.45462998938802" y="267.6523060705" text-anchor="start" dominant-baseline="alphabetic" xml:space="preserve">Share Code</text></g><g><path fill="none" stroke="black" paint-order="fill stroke markers" d=" M 46.04517275595703 274.1863873905 L 474.38061278772784 274.1863873905" stroke-miterlimit="10" stroke-width="1.3612669416666667" stroke-dasharray="6.53408132"/><g transform="translate(477.10314667106115,274.1863873905) translate(-477.10314667106115,-274.1863873905)"><path fill="black" stroke="none" paint-order="stroke fill markers" d=" M 463.4904772543945 267.38005268216665 L 477.10314667106115 274.1863873905 L 463.4904772543945 280.9927220988333 Z"/></g></g><g><g><rect fill="white" stroke="none" x="334.2971251386914" y="298.6891923405" width="70.0830561071875" height="21.23576429"/></g><text fill="black" stroke="none" font-family="sans-serif" font-size="11pt" font-style="normal" font-weight="normal" text-decoration="normal" x="336.7474056336914" y="313.39087531049995" text-anchor="start" dominant-baseline="alphabetic" xml:space="preserve">Join Party</text></g><g><path fill="none" stroke="black" paint-order="fill stroke markers" d=" M 477.10314667106115 319.9249566305 L 264.29669359684243 319.9249566305" stroke-miterlimit="10" stroke-width="1.3612669416666667" stroke-dasharray=""/><g transform="translate(261.5741597135091,319.9249566305) translate(-261.5741597135091,-319.9249566305)"><path fill="black" stroke="none" paint-order="stroke fill markers" d=" M 275.1868291301758 313.11862192216665 L 261.5741597135091 319.9249566305 L 275.1868291301758 326.73129133883333 Z"/></g></g><g><g><rect fill="white" stroke="none" x="280.9041502851758" y="344.4277615805" width="176.86900581421875" height="21.23576429"/></g><text fill="black" stroke="none" font-family="sans-serif" font-size="11pt" font-style="normal" font-weight="normal" text-decoration="normal" x="283.3544307801758" y="359.12944455049995" text-anchor="start" dominant-baseline="alphabetic" xml:space="preserve">Exchange Connection Info</text></g><g><path fill="none" stroke="black" paint-order="fill stroke markers" d=" M 477.10314667106115 365.6635258705 L 264.29669359684243 365.6635258705" stroke-miterlimit="10" stroke-width="1.3612669416666667" stroke-dasharray=""/><g transform="translate(261.5741597135091,365.6635258705) translate(-261.5741597135091,-365.6635258705)"><path fill="black" stroke="none" paint-order="stroke fill markers" d=" M 275.1868291301758 358.85719116216666 L 261.5741597135091 365.6635258705 L 275.1868291301758 372.46986057883333 Z"/><g transform="translate(477.10314667106115,365.6635258705) translate(-477.10314667106115,-365.6635258705)"><path fill="black" stroke="none" paint-order="stroke fill markers" d=" M 463.4904772543945 358.85719116216666 L 477.10314667106115 365.6635258705 L 463.4904772543945 372.46986057883333 Z"/></g></g></g><g><g><rect fill="white" stroke="none" x="65.3751633276237" y="344.4277615805" width="176.86900581421875" height="21.23576429"/></g><text fill="black" stroke="none" font-family="sans-serif" font-size="11pt" font-style="normal" font-weight="normal" text-decoration="normal" x="67.8254438226237" y="359.12944455049995" text-anchor="start" dominant-baseline="alphabetic" xml:space="preserve">Exchange Connection Info</text></g><g><path fill="none" stroke="black" paint-order="fill stroke markers" d=" M 261.5741597135091 365.6635258705 L 48.76770663929037 365.6635258705" stroke-miterlimit="10" stroke-width="1.3612669416666667" stroke-dasharray=""/><g transform="translate(46.04517275595703,365.6635258705) translate(-46.04517275595703,-365.6635258705)"><path fill="black" stroke="none" paint-order="stroke fill markers" d=" M 59.6578421726237 358.85719116216666 L 46.04517275595703 365.6635258705 L 59.6578421726237 372.46986057883333 Z"/><g transform="translate(261.5741597135091,365.6635258705) translate(-261.5741597135091,-365.6635258705)"><path fill="black" stroke="none" paint-order="stroke fill markers" d=" M 247.96149029684244 358.85719116216666 L 261.5741597135091 365.6635258705 L 247.96149029684244 372.46986057883333 Z"/></g></g></g><g><g><rect fill="white" stroke="none" x="326.6915343183789" y="390.1663308205" width="85.2942377478125" height="21.23576429"/></g><text fill="black" stroke="none" font-family="sans-serif" font-size="11pt" font-style="normal" font-weight="normal" text-decoration="normal" x="329.1418148133789" y="404.86801379049996" text-anchor="start" dominant-baseline="alphabetic" xml:space="preserve">Create Offer</text></g><g><path fill="none" stroke="black" paint-order="fill stroke markers" d=" M 477.10314667106115 411.4020951105 L 264.29669359684243 411.4020951105" stroke-miterlimit="10" stroke-width="1.3612669416666667" stroke-dasharray=""/><g transform="translate(261.5741597135091,411.4020951105) translate(-261.5741597135091,-411.4020951105)"><path fill="black" stroke="none" paint-order="stroke fill markers" d=" M 275.1868291301758 404.59576040216666 L 261.5741597135091 411.4020951105 L 275.1868291301758 418.20842981883334 Z"/></g></g><g><g><rect fill="white" stroke="none" x="151.35938573973309" y="390.1663308205" width="4.90056099" height="21.23576429"/></g><text fill="black" stroke="none" font-family="sans-serif" font-size="11pt" font-style="normal" font-weight="normal" text-decoration="normal" x="153.80966623473307" y="404.86801379049996" text-anchor="start" dominant-baseline="alphabetic" xml:space="preserve"></text></g><g><path fill="none" stroke="black" paint-order="fill stroke markers" d=" M 261.5741597135091 411.4020951105 L 48.76770663929037 411.4020951105" stroke-miterlimit="10" stroke-width="1.3612669416666667" stroke-dasharray=""/><g transform="translate(46.04517275595703,411.4020951105) translate(-46.04517275595703,-411.4020951105)"><path fill="black" stroke="none" paint-order="stroke fill markers" d=" M 59.6578421726237 404.59576040216666 L 46.04517275595703 411.4020951105 L 59.6578421726237 418.20842981883334 Z"/></g></g><g><g><rect fill="white" stroke="none" x="102.88051916258463" y="435.9049000605" width="101.85829414429688" height="21.23576429"/></g><text fill="black" stroke="none" font-family="sans-serif" font-size="11pt" font-style="normal" font-weight="normal" text-decoration="normal" x="105.33079965758463" y="450.60658303049996" text-anchor="start" dominant-baseline="alphabetic" xml:space="preserve">Create Answer</text></g><g><path fill="none" stroke="black" paint-order="fill stroke markers" d=" M 46.04517275595703 457.1406643505 L 258.8516258301758 457.1406643505" stroke-miterlimit="10" stroke-width="1.3612669416666667" stroke-dasharray=""/><g transform="translate(261.5741597135091,457.1406643505) translate(-261.5741597135091,-457.1406643505)"><path fill="black" stroke="none" paint-order="stroke fill markers" d=" M 247.96149029684244 450.33432964216667 L 261.5741597135091 457.1406643505 L 247.96149029684244 463.94699905883334 Z"/></g></g><g><g><rect fill="white" stroke="none" x="366.88837269728515" y="435.9049000605" width="4.90056099" height="21.23576429"/></g><text fill="black" stroke="none" font-family="sans-serif" font-size="11pt" font-style="normal" font-weight="normal" text-decoration="normal" x="369.33865319228516" y="450.60658303049996" text-anchor="start" dominant-baseline="alphabetic" xml:space="preserve"></text></g><g><path fill="none" stroke="black" paint-order="fill stroke markers" d=" M 261.5741597135091 457.1406643505 L 474.38061278772784 457.1406643505" stroke-miterlimit="10" stroke-width="1.3612669416666667" stroke-dasharray=""/><g transform="translate(477.10314667106115,457.1406643505) translate(-477.10314667106115,-457.1406643505)"><path fill="black" stroke="none" paint-order="stroke fill markers" d=" M 463.4904772543945 450.33432964216667 L 477.10314667106115 457.1406643505 L 463.4904772543945 463.94699905883334 Z"/></g></g><g><g><rect fill="white" stroke="none" x="164.5892036203646" y="481.6434693005" width="193.96991218628906" height="21.23576429"/></g><text fill="black" stroke="none" font-family="sans-serif" font-size="11pt" font-style="normal" font-weight="normal" text-decoration="normal" x="167.0394841153646" y="496.34515227049997" text-anchor="start" dominant-baseline="alphabetic" xml:space="preserve">Peer Connection Established</text></g><g><path fill="none" stroke="black" paint-order="fill stroke markers" d=" M 46.04517275595703 502.8792335905 L 474.38061278772784 502.8792335905" stroke-miterlimit="10" stroke-width="1.3612669416666667" stroke-dasharray=""/><g transform="translate(477.10314667106115,502.8792335905) translate(-477.10314667106115,-502.8792335905)"><path fill="none" stroke="black" paint-order="fill stroke markers" d=" M 463.4904772543945 496.07289888216667 L 475.7418797293945 502.8792335905 L 463.4904772543945 509.68556829883335" stroke-miterlimit="10" stroke-width="1.3612669416666667"/><g transform="translate(46.04517275595703,502.8792335905) translate(-46.04517275595703,-502.8792335905)"><path fill="none" stroke="black" paint-order="fill stroke markers" d=" M 59.657842172623695 496.07289888216667 L 47.406439697623696 502.8792335905 L 59.657842172623695 509.68556829883335" stroke-miterlimit="10" stroke-width="1.3612669416666667"/></g></g></g></g><g/></g></svg>